<?xml version="1.0" encoding="utf-8"?>
<!-- Generator: Adobe Illustrator 16.0.0, SVG Export Plug-In . SVG Version: 6.00 Build 0)  -->
<!DOCTYPE svg PUBLIC "-//W3C//DTD SVG 1.1//EN" "http://www.w3.org/Graphics/SVG/1.1/DTD/svg11.dtd">
<svg version="1.1" id="图层_1" xmlns="http://www.w3.org/2000/svg" xmlns:xlink="http://www.w3.org/1999/xlink" x="0px" y="0px"
	 width="100%" height="100%" viewBox="0 0 1920 1181" enable-background="new 0 0 1920 1181" xml:space="preserve">
<g>
	<g>
		<rect x="0.817" y="-0.431" fill="#F0F2F5" width="1916.438" height="1181"/>
		<g>
			<defs>
				<rect id="SVGID_1_" x="0.817" y="-0.431" width="1916.438" height="1181"/>
			</defs>
			<clipPath id="SVGID_2_">
				<use xlink:href="#SVGID_1_"  overflow="visible"/>
			</clipPath>
			<polygon clip-path="url(#SVGID_2_)" fill="#3CC990" points="2277.769,1180.705 1441.608,508.261 978.967,800.115 874.376,717.16 
				558.293,930.143 469.704,878.789 -95.469,1180.705 			"/>
			<polygon clip-path="url(#SVGID_2_)" fill="#21AD71" points="-95.469,1179.705 469.704,877.789 378.933,1006.344 404.43,1106.631 
				293.455,1180.568 			"/>
			<polygon clip-path="url(#SVGID_2_)" fill="#21AD71" points="558.293,929.143 874.376,716.16 839.339,790.715 839.339,852.1 
				789.322,895.297 			"/>
			<polygon clip-path="url(#SVGID_2_)" fill="#21AD71" points="1338.303,625.613 1441.608,507.261 978.967,799.115 
				1329.208,705.943 			"/>
		</g>
	</g>
	<g>
		<circle fill="#595656" cx="388.075" cy="835.14" r="9.446"/>
		<polygon fill="#595656" points="395.898,861.425 402.614,874.543 406.89,872.354 421.813,864.924 419.223,859.722 405.145,866.73 
			395.915,848.702 395.898,848.711 395.898,848.702 378.63,848.702 378.63,848.748 358.479,865.151 361.535,868.905 
			371.892,881.924 376.438,878.305 366.648,865.997 378.63,856.243 378.63,890.965 378.686,890.965 377.298,907.739 
			370.315,927.513 378.081,930.255 385.247,909.955 385.377,909.966 386.944,890.999 386.532,890.965 395.898,890.965 
			395.898,890.964 408.603,890.965 408.603,908.457 416.595,908.457 416.595,890.965 416.595,889.759 416.595,882.972 
			395.898,882.971 		"/>
	</g>
	<g>
		<path fill="#595656" d="M472.099,850.918c0-1.428-1.156-2.584-2.584-2.584c-1.426,0-2.583,1.156-2.583,2.584
			c0,1.134,0.734,2.086,1.75,2.434v24.899h1.666v-24.899C471.363,853.004,472.099,852.052,472.099,850.918z"/>
		<path fill="#595656" d="M485.599,853.084c-5.834-4.166-14,1.418-14.5,1.834l0.083,14.666c0,0,5.667-4,9.75-2.75
			s7.583,3.584,11.083,2.417s4.834-2.833,4.834-2.833l0.166-14.084C497.015,852.334,491.433,857.25,485.599,853.084z"/>
	</g>
	<g>
		<path fill="#595656" d="M876.766,690.084c0-1.428-1.156-2.584-2.584-2.584c-1.426,0-2.583,1.156-2.583,2.584
			c0,1.134,0.734,2.086,1.75,2.434v24.899h1.666v-24.899C876.03,692.17,876.766,691.218,876.766,690.084z"/>
		<path fill="#595656" d="M890.266,692.25c-5.834-4.166-14,1.418-14.5,1.834l0.083,14.666c0,0,5.667-4,9.75-2.75
			s7.583,3.584,11.083,2.417s4.834-2.833,4.834-2.833l0.166-14.084C901.682,691.5,896.1,696.416,890.266,692.25z"/>
	</g>
	<g>
		<path fill="#595656" d="M1443.432,481.417c0-1.428-1.156-2.584-2.584-2.584c-1.426,0-2.583,1.156-2.583,2.584
			c0,1.134,0.734,2.086,1.75,2.434v24.899h1.666v-24.899C1442.696,483.503,1443.432,482.551,1443.432,481.417z"/>
		<path fill="#595656" d="M1456.932,483.583c-5.834-4.166-14,1.418-14.5,1.834l0.083,14.666c0,0,5.667-4,9.75-2.75
			s7.583,3.584,11.083,2.417s4.834-2.833,4.834-2.833l0.166-14.084C1468.348,482.833,1462.766,487.749,1456.932,483.583z"/>
	</g>
</g>
</svg>
