<?xml version="1.0" encoding="utf-8"?>
<!-- Generator: Adobe Illustrator 16.0.0, SVG Export Plug-In . SVG Version: 6.00 Build 0)  -->
<!DOCTYPE svg PUBLIC "-//W3C//DTD SVG 1.1//EN" "http://www.w3.org/Graphics/SVG/1.1/DTD/svg11.dtd" [
	<!ENTITY ns_flows "http://ns.adobe.com/Flows/1.0/">
	<!ENTITY ns_extend "http://ns.adobe.com/Extensibility/1.0/">
	<!ENTITY ns_ai "http://ns.adobe.com/AdobeIllustrator/10.0/">
	<!ENTITY ns_graphs "http://ns.adobe.com/Graphs/1.0/">
]>
<svg version="1.1" id="图层_1" xmlns:x="&ns_extend;" xmlns:i="&ns_ai;" xmlns:graph="&ns_graphs;"
	 xmlns="http://www.w3.org/2000/svg" xmlns:xlink="http://www.w3.org/1999/xlink" xmlns:a="http://ns.adobe.com/AdobeSVGViewerExtensions/3.0/"
	 x="0px" y="0px" width="170px" height="31px" viewBox="0 0 170 31" style="enable-background:new 0 0 170 31;"
	 xml:space="preserve">
<g>
	<polygon points="0,31 18.21,0 38.88,0 39.17,0 21.06,31 	"/>
	<polygon points="6.11,15.33 0.8,0 15.27,0 	"/>
	<linearGradient id="SVGID_1_" gradientUnits="userSpaceOnUse" x1="27.4272" y1="20.3975" x2="38.491" y2="31.4612">
		<stop  offset="0" style="stop-color:#8EAF3E"/>
		<stop  offset="1" style="stop-color:#8EAF3E"/>
		<a:midPointStop  offset="0" style="stop-color:#8EAF3E"/>
		<a:midPointStop  offset="0.5" style="stop-color:#8EAF3E"/>
		<a:midPointStop  offset="1" style="stop-color:#8EAF3E"/>
	</linearGradient>
	<path style="fill:url(#SVGID_1_);" d="M34.36,13.47L24.17,31h14.78L34.36,13.47z M33.06,20.48l1.85,6.95h-5.9L33.06,20.48z"/>
	<g>
		<linearGradient id="SVGID_2_" gradientUnits="userSpaceOnUse" x1="42.7041" y1="24.3887" x2="52.2466" y2="24.3887">
			<stop  offset="0" style="stop-color:#8EAF3E"/>
			<stop  offset="1" style="stop-color:#8EAF3E"/>
			<a:midPointStop  offset="0" style="stop-color:#8EAF3E"/>
			<a:midPointStop  offset="0.5" style="stop-color:#8EAF3E"/>
			<a:midPointStop  offset="1" style="stop-color:#8EAF3E"/>
		</linearGradient>
		<path style="fill:url(#SVGID_2_);" d="M52.25,18.44v1.08l-5.72,9.63h5.29v1.2H42.7v-1.2l5.65-9.51h-4.84v-1.2H52.25z"/>
		<linearGradient id="SVGID_3_" gradientUnits="userSpaceOnUse" x1="55.7314" y1="24.3887" x2="65.2983" y2="24.3887">
			<stop  offset="0" style="stop-color:#8EAF3E"/>
			<stop  offset="1" style="stop-color:#8EAF3E"/>
			<a:midPointStop  offset="0" style="stop-color:#8EAF3E"/>
			<a:midPointStop  offset="0.5" style="stop-color:#8EAF3E"/>
			<a:midPointStop  offset="1" style="stop-color:#8EAF3E"/>
		</linearGradient>
		<path style="fill:url(#SVGID_3_);" d="M65.3,18.44l-2.9,7.51v4.4h-3.45v-4.4l-3.21-7.51h3.58l2.42,5.74l2.18-5.74H65.3z"/>
		<linearGradient id="SVGID_4_" gradientUnits="userSpaceOnUse" x1="69.6465" y1="24.3887" x2="78.0894" y2="24.3887">
			<stop  offset="0" style="stop-color:#8EAF3E"/>
			<stop  offset="1" style="stop-color:#8EAF3E"/>
			<a:midPointStop  offset="0" style="stop-color:#8EAF3E"/>
			<a:midPointStop  offset="0.5" style="stop-color:#8EAF3E"/>
			<a:midPointStop  offset="1" style="stop-color:#8EAF3E"/>
		</linearGradient>
		<path style="fill:url(#SVGID_4_);" d="M77.37,18.44v1.2H73.1v3.6h3.58v1.19H73.1v4.72h4.99v1.2h-8.44V18.44H77.37z"/>
		<linearGradient id="SVGID_5_" gradientUnits="userSpaceOnUse" x1="82.7354" y1="24.3887" x2="91.1777" y2="24.3887">
			<stop  offset="0" style="stop-color:#8EAF3E"/>
			<stop  offset="1" style="stop-color:#8EAF3E"/>
			<a:midPointStop  offset="0" style="stop-color:#8EAF3E"/>
			<a:midPointStop  offset="0.5" style="stop-color:#8EAF3E"/>
			<a:midPointStop  offset="1" style="stop-color:#8EAF3E"/>
		</linearGradient>
		<path style="fill:url(#SVGID_5_);" d="M90.45,18.44v1.2h-4.26v3.6h3.58v1.19h-3.58v4.72h4.99v1.2h-8.44V18.44H90.45z"/>
		<linearGradient id="SVGID_6_" gradientUnits="userSpaceOnUse" x1="95.832" y1="24.3887" x2="106.0273" y2="24.3887">
			<stop  offset="0" style="stop-color:#8EAF3E"/>
			<stop  offset="1" style="stop-color:#8EAF3E"/>
			<a:midPointStop  offset="0" style="stop-color:#8EAF3E"/>
			<a:midPointStop  offset="0.5" style="stop-color:#8EAF3E"/>
			<a:midPointStop  offset="1" style="stop-color:#8EAF3E"/>
		</linearGradient>
		<path style="fill:url(#SVGID_6_);" d="M95.83,30.34V18.44h4.94c3.5,0,5.26,1.99,5.26,5.96c0,3.96-1.82,5.94-5.45,5.94H95.83z
			 M99.28,29.36h0.91c0.83,0,1.4-0.36,1.73-1.08c0.32-0.72,0.48-2.02,0.48-3.89c0-1.88-0.16-3.17-0.47-3.89
			c-0.32-0.71-0.9-1.07-1.73-1.07h-0.91V29.36z"/>
		<linearGradient id="SVGID_7_" gradientUnits="userSpaceOnUse" x1="109.9756" y1="24.3887" x2="119.8477" y2="24.3887">
			<stop  offset="0" style="stop-color:#8EAF3E"/>
			<stop  offset="1" style="stop-color:#8EAF3E"/>
			<a:midPointStop  offset="0" style="stop-color:#8EAF3E"/>
			<a:midPointStop  offset="0.5" style="stop-color:#8EAF3E"/>
			<a:midPointStop  offset="1" style="stop-color:#8EAF3E"/>
		</linearGradient>
		<path style="fill:url(#SVGID_7_);" d="M116.53,18.44l3.32,11.91h-3.47l-0.71-2.58h-3.58l-0.76,2.58h-1.35l3.52-11.91H116.53z
			 M112.42,26.56h2.92l-1.41-5.28L112.42,26.56z"/>
	</g>
</g>
<g>
	<path d="M142.15,20.7v6.03h-4.4V31h-2.54v-4.26h-4.32V20.7h4.32v-2.23h2.54v2.23H142.15z M135.21,21.24h-2.42v4.96h2.42V21.24z
		 M140.25,21.24h-2.5v4.96h2.5V21.24z"/>
	<path d="M143.84,30.09h3.61c-0.18-0.63-0.5-1.36-0.94-2.21l1.92-0.26c0.06,0.15,0.12,0.28,0.16,0.37c0.18,0.4,0.3,0.68,0.37,0.83
		l0.49,1.27h1.66c0.33-0.54,0.65-1.37,0.97-2.46l1.9,0.24l-0.39,1.12c-0.2,0.51-0.36,0.88-0.49,1.1h3.3v0.55h-12.54V30.09z
		 M150.97,24.93c0.23,0.41,0.41,0.84,0.54,1.29l0.04,0.12h4.06v0.51h-11.18v-0.51h4.63c-0.03-0.06-0.05-0.12-0.07-0.16
		c-0.07-0.24-0.22-0.54-0.44-0.9c-0.02-0.03-0.04-0.06-0.07-0.11L150.97,24.93z M145.2,24.91v-6h9.86v6H145.2z M153.2,19.28h-6.12
		v2.38h6.12V19.28z M147.07,24.52h6.12v-2.55h-6.12V24.52z"/>
	<path d="M169.35,30.24c-1,0.04-2.04,0.07-3.13,0.07c-2.02,0-3.45-0.09-4.27-0.29c-0.82-0.19-1.55-0.79-1.93-1.54
		c0.11-0.22,0.54-1.19,0.54-2.94v-3.33h-2.97v0.39h1.26v3.18c0,1.49-0.34,3.27-1.38,4.31l0.8,0.8c0.43-0.38,0.83-0.89,1.21-1.54
		c0.04-0.08,0.11-0.19,0.19-0.31c0.43,0.74,1.03,1.21,1.82,1.41c0.79,0.21,2.45,0.31,5.01,0.31h3.28L170,30.2
		C169.75,30.23,169.53,30.24,169.35,30.24z M158.72,20.21l0.82,0.97l1.45-0.84c-0.49-0.55-0.98-1.02-1.47-1.43
		c-0.08-0.06-0.19-0.15-0.31-0.26l-1.37,0.65C158.17,19.6,158.46,19.9,158.72,20.21z M161.17,28.36l1.82,0.7
		c0.17-0.42,0.32-0.75,0.44-1c0.49-1.08,0.83-1.84,1-2.26l0.99-2.56l0.99,2.56c0.17,0.42,0.51,1.17,1,2.26
		c0.12,0.25,0.27,0.58,0.44,1l1.81-0.7c-1.21-2.29-2.06-4.3-2.55-6h2.72v-0.38h-3.22v-3.5h-2.35v3.5h-3.15v0.38h2.6
		C163.23,24.07,162.38,26.07,161.17,28.36z"/>
</g>
</svg>
