<?xml version="1.0" encoding="utf-8"?>
<!-- Generator: Adobe Illustrator 16.0.0, SVG Export Plug-In . SVG Version: 6.00 Build 0)  -->
<!DOCTYPE svg PUBLIC "-//W3C//DTD SVG 1.1//EN" "http://www.w3.org/Graphics/SVG/1.1/DTD/svg11.dtd">
<svg version="1.1" id="图层_1" xmlns="http://www.w3.org/2000/svg" xmlns:xlink="http://www.w3.org/1999/xlink" x="0px" y="0px"
	 width="566.93px" height="141.73px" viewBox="0 0 566.93 141.73" enable-background="new 0 0 566.93 141.73" xml:space="preserve">
<path fill="#FFFFFF" d="M556.703,93.631V77.704h-4.256V60.831h-1.705V47.198h-1.277v13.633h-2.129v16.873h-5.113v18.909h-6.818
	V78.131h-8.518v-53.25h-2.98v-5.372h-11.504v5.372h-2.555v70.453h-5.115v-3.998h-2.553v-5.373h-1.705v-3.407h-2.555v3.407h-2.557
	v5.373h-2.559v8.261h-6.812V58.108H463.84v21.04h-1.705V40.81h-2.131V24.621h-0.848V40.81h-2.559v38.339h-3.834v13.038h-7.211
	V68.497h-7.246V39.366h-5.111v54.691h-10.221V84.52h-8.947v-18.15h-9.799v27.688h-4.289V39.366h-5.111v29.131h-7.24v23.689h-7.217
	V79.148h-3.832V40.81h-2.557V24.621h-0.854V40.81H371v38.339h-1.703v-21.04h-22.152v41.488h-6.816v-8.261h-2.555v-5.373h-2.557
	v-3.407h-2.555v3.407h-1.705v5.373h-2.555v3.998h-5.113V40.597h-2.557v-5.371h-11.5v5.371h-2.982v37.534h-8.52v18.482h-6.262
	l-0.553-1.699v-17.21h-0.418h-4.256V60.831h-0.439h-1.268V47.198h-0.863h-0.415h-0.863v13.633h-1.266h-0.438v16.873h-4.259h-0.416
	v15.927h-6.816v-15.5h-8.519V52.123h-2.981v-5.372h-11.503v5.372h-2.556v43.211h-5.112v-3.998h-2.555v-5.373h-1.704v-3.407h-2.555
	v3.407h-2.556v5.373h-2.56v8.261h-6.812V58.108h-22.155v21.04h-1.703V40.81h-2.131V24.621h-0.85V40.81h-2.558v38.339h-3.833v13.038
	h-7.213V68.497h-7.244V39.366h-5.111v54.691h-10.222V84.52h-8.949v-18.15h-9.796v27.688h-4.291V39.366h-5.111v29.131h-7.242v23.689
	h-7.215V79.148h-3.833V40.81h-2.557V24.621h-0.851V40.81h-2.129v38.339h-1.704v-21.04H80.938v41.488h-6.816v-8.261h-2.557v-5.373
	h-2.555v-3.407h-2.556v3.407h-1.704v5.373h-2.555v3.998h-5.113V24.881h-2.558v-5.372H43.025v5.372h-2.982v53.25h-8.519v18.482
	h-6.816V77.704h-5.113V60.831h-2.13V47.198h-1.277v13.633h-1.704v16.873h-4.26v15.927H0v48.1h170.57h8.775h86.862h34.516h136.053
	h8.777H566.93v-48.1H556.703z M15.655,105.515h-2.543v-3.108h2.543V105.515z M15.655,99.896h-2.543V96.79h2.543V99.896z
	 M15.655,94.282h-2.543V91.17h2.543V94.282z M15.655,88.665h-2.543v-3.111h2.543V88.665z M15.655,83.045h-2.543v-3.109h2.543V83.045
	z M21.273,105.515h-2.544v-3.108h2.544V105.515z M21.273,99.896h-2.544V96.79h2.544V99.896z M21.273,94.282h-2.544V91.17h2.544
	V94.282z M21.273,88.665h-2.544v-3.111h2.544V88.665z M21.273,83.045h-2.544v-3.109h2.544V83.045z M34.966,97.227h-1.68v-2.052h1.68
	V97.227z M34.966,93.515h-1.68V91.46h1.68V93.515z M34.966,89.805h-1.68V87.75h1.68V89.805z M34.966,86.092h-1.68v-2.053h1.68
	V86.092z M34.966,82.382h-1.68v-2.055h1.68V82.382z M38.678,97.227h-1.681v-2.052h1.681V97.227z M38.678,93.515h-1.681V91.46h1.681
	V93.515z M38.678,89.805h-1.681V87.75h1.681V89.805z M38.678,86.092h-1.681v-2.053h1.681V86.092z M38.678,82.382h-1.681v-2.055
	h1.681V82.382z M44.613,80.408h-1.498V54.866h1.498V80.408z M44.613,52.373h-1.498V26.828h1.498V52.373z M48.092,80.408h-1.496
	V54.866h1.496V80.408z M48.092,52.373h-1.496V26.828h1.496V52.373z M51.574,80.408h-1.497V54.866h1.497V80.408z M51.574,52.373
	h-1.497V26.828h1.497V52.373z M55.052,80.408h-1.495V54.866h1.495V80.408z M55.052,52.373h-1.495V26.828h1.495V52.373z
	 M66.497,104.756h-2.552v-1.437h2.552V104.756z M66.497,102.161h-2.552v-1.435h2.552V102.161z M66.497,99.569h-2.552v-1.438h2.552
	V99.569z M66.497,96.975h-2.552V95.54h2.552V96.975z M66.497,94.379h-2.552v-1.436h2.552V94.379z M72.135,104.756h-2.553v-1.437
	h2.553V104.756z M72.135,102.161h-2.553v-1.435h2.553V102.161z M72.135,99.569h-2.553v-1.438h2.553V99.569z M72.135,96.975h-2.553
	V95.54h2.553V96.975z M72.135,94.379h-2.553v-1.436h2.553V94.379z M98.284,61.036h1.993v25.545h-1.993V61.036z M89.018,61.036h1.993
	v25.545h-1.993V61.036z M86.296,105.91h-2.163v-2.643h2.163V105.91z M86.296,101.136h-2.163V98.49h2.163V101.136z M86.296,96.361
	h-2.163V93.72h2.163V96.361z M86.296,91.585h-2.163v-2.64h2.163V91.585z M86.375,86.581h-1.993V61.036h1.993V86.581z M91.071,105.91
	H88.91v-2.643h2.162V105.91z M91.071,101.136H88.91V98.49h2.162V101.136z M91.071,96.361H88.91V93.72h2.162V96.361z M91.071,91.585
	H88.91v-2.64h2.162V91.585z M95.624,105.91h-2.163v-2.643h2.163V105.91z M95.624,101.136h-2.163V98.49h2.163V101.136z
	 M95.624,96.361h-2.163V93.72h2.163V96.361z M95.624,91.585h-2.163v-2.64h2.163V91.585z M95.645,86.581h-1.993V61.036h1.993V86.581z
	 M100.399,105.91h-2.163v-2.643h2.163V105.91z M100.399,101.136h-2.163V98.49h2.163V101.136z M100.399,96.361h-2.163V93.72h2.163
	V96.361z M100.399,91.585h-2.163v-2.64h2.163V91.585z M108.664,85.399h-2.051v-1.683h2.051V85.399z M108.664,81.687h-2.051v-1.681
	h2.051V81.687z M108.664,78.189h-2.051v-1.679h2.051V78.189z M108.664,74.479h-2.051v-1.68h2.051V74.479z M108.664,70.98h-2.051
	v-1.679h2.051V70.98z M108.664,67.271h-2.051v-1.683h2.051V67.271z M108.664,63.771h-2.051v-1.677h2.051V63.771z M108.664,60.062
	h-2.051v-1.68h2.051V60.062z M108.664,56.566h-2.051v-1.682h2.051V56.566z M108.664,52.855h-2.051v-1.681h2.051V52.855z
	 M108.664,49.359h-2.051v-1.681h2.051V49.359z M108.664,45.647h-2.051v-1.681h2.051V45.647z M116.758,99.3h-1.681v-2.056h1.681V99.3
	z M116.758,95.59h-1.681v-2.056h1.681V95.59z M120.47,99.3h-1.682v-2.056h1.682V99.3z M120.47,95.59h-1.682v-2.056h1.682V95.59z
	 M123.421,89.706h-1.097V70.968h1.097V89.706z M125.972,89.706h-1.097V70.968h1.097V89.706z M128.529,89.706h-1.1V70.968h1.1V89.706
	z M131.08,89.706h-1.1V70.968h1.1V89.706z M141.895,80.475h-1.858V79.04h1.858V80.475z M141.895,77.878h-1.858v-1.433h1.858V77.878z
	 M141.895,75.287h-1.858v-1.437h1.858V75.287z M141.895,72.69h-1.858v-1.433h1.858V72.69z M141.895,70.098h-1.858v-1.435h1.858
	V70.098z M145.993,80.475h-1.856V79.04h1.856V80.475z M145.993,77.878h-1.856v-1.433h1.856V77.878z M145.993,75.287h-1.856v-1.437
	h1.856V75.287z M145.993,72.69h-1.856v-1.433h1.856V72.69z M145.993,70.098h-1.856v-1.435h1.856V70.098z M150.837,103.618h-1.682
	v-2.055h1.682V103.618z M150.837,99.905h-1.682v-2.054h1.682V99.905z M150.837,96.193h-1.682v-2.055h1.682V96.193z M150.837,92.483
	h-1.682v-2.055h1.682V92.483z M150.837,88.773h-1.682v-2.055h1.682V88.773z M154.549,103.618h-1.679v-2.055h1.679V103.618z
	 M154.549,99.905h-1.679v-2.054h1.679V99.905z M154.549,96.193h-1.679v-2.055h1.679V96.193z M154.549,92.483h-1.679v-2.055h1.679
	V92.483z M154.549,88.773h-1.679v-2.055h1.679V88.773z M170.743,89.706h-1.098V70.968h1.098V89.706z M173.293,89.706h-1.098V70.968
	h1.098V89.706z M175.849,89.706h-1.097V70.968h1.097V89.706z M178.401,89.706h-1.098V70.968h1.098V89.706z M181.935,99.3h-1.68
	v-2.056h1.68V99.3z M181.935,95.59h-1.68v-2.056h1.68V95.59z M185.647,99.3h-1.683v-2.056h1.683V99.3z M185.647,95.59h-1.683v-2.056
	h1.683V95.59z M194.111,85.399h-2.051v-1.683h2.051V85.399z M194.111,81.687h-2.051v-1.681h2.051V81.687z M194.111,78.189h-2.051
	v-1.679h2.051V78.189z M194.111,74.479h-2.051v-1.68h2.051V74.479z M194.111,70.98h-2.051v-1.679h2.051V70.98z M194.111,67.271
	h-2.051v-1.683h2.051V67.271z M194.111,63.771h-2.051v-1.677h2.051V63.771z M194.111,60.062h-2.051v-1.68h2.051V60.062z
	 M194.111,56.566h-2.051v-1.682h2.051V56.566z M194.111,52.855h-2.051v-1.681h2.051V52.855z M194.111,49.359h-2.051v-1.681h2.051
	V49.359z M194.111,45.647h-2.051v-1.681h2.051V45.647z M209.712,61.036h1.995v25.545h-1.995V61.036z M200.445,61.036h1.993v25.545
	h-1.993V61.036z M202.487,105.91h-2.161v-2.643h2.161V105.91z M202.487,101.136h-2.161V98.49h2.161V101.136z M202.487,96.361h-2.161
	V93.72h2.161V96.361z M202.487,91.585h-2.161v-2.64h2.161V91.585z M205.08,61.036h1.993v25.545h-1.993V61.036z M207.262,105.91
	H205.1v-2.643h2.162V105.91z M207.262,101.136H205.1V98.49h2.162V101.136z M207.262,96.361H205.1V93.72h2.162V96.361z
	 M207.262,91.585H205.1v-2.64h2.162V91.585z M211.816,105.91h-2.165v-2.643h2.165V105.91z M211.816,101.136h-2.165V98.49h2.165
	V101.136z M211.816,96.361h-2.165V93.72h2.165V96.361z M211.816,91.585h-2.165v-2.64h2.165V91.585z M214.348,61.036h1.995v25.545
	h-1.995V61.036z M216.59,105.91h-2.161v-2.643h2.161V105.91z M216.59,101.136h-2.161V98.49h2.161V101.136z M216.59,96.361h-2.161
	V93.72h2.161V96.361z M216.59,91.585h-2.161v-2.64h2.161V91.585z M231.142,104.756h-2.553v-1.437h2.553V104.756z M231.142,102.161
	h-2.553v-1.435h2.553V102.161z M231.142,99.569h-2.553v-1.438h2.553V99.569z M231.142,96.975h-2.553V95.54h2.553V96.975z
	 M231.142,94.379h-2.553v-1.436h2.553V94.379z M236.778,104.756h-2.552v-1.437h2.552V104.756z M236.778,102.161h-2.552v-1.435h2.552
	V102.161z M236.778,99.569h-2.552v-1.438h2.552V99.569z M236.778,96.975h-2.552V95.54h2.552V96.975z M236.778,94.379h-2.552v-1.436
	h2.552V94.379z M247.167,80.408h-1.498V54.866h1.498V80.408z M250.649,80.408h-1.497V54.866h1.497V80.408z M254.128,80.408h-1.496
	V54.866h1.496V80.408z M257.609,80.408h-1.496V54.866h1.496V80.408z M263.728,97.227h-1.683v-2.052h1.683V97.227z M263.728,93.515
	h-1.683V91.46h1.683V93.515z M263.728,89.805h-1.683V87.75h1.683V89.805z M263.728,86.092h-1.683v-2.053h1.683V86.092z
	 M263.728,82.382h-1.683v-2.055h1.683V82.382z M267.435,97.227h-1.678v-2.052h1.678V97.227z M267.435,93.515h-1.678V91.46h1.678
	V93.515z M267.435,89.805h-1.678V87.75h1.678V89.805z M267.435,86.092h-1.678v-2.053h1.678V86.092z M267.435,82.382h-1.678v-2.055
	h1.678V82.382z M281.994,105.515h-0.131h-2.411h-0.134v-3.108h0.134h2.411h0.131V105.515z M281.994,99.896h-0.131h-2.411h-0.134
	V96.79h0.134h2.411h0.131V99.896z M281.994,94.282h-0.131h-2.411h-0.134V91.17h0.134h2.411h0.131V94.282z M281.994,88.665h-0.131
	h-2.411h-0.134v-3.111h0.134h2.411h0.131V88.665z M281.994,83.045h-0.131h-2.411h-0.134v-3.109h0.134h2.411h0.131V83.045z
	 M287.611,105.515h-0.133h-2.41h-0.133v-3.108h0.133h2.41h0.133V105.515z M287.611,99.896h-0.133h-2.41h-0.133V96.79h0.133h2.41
	h0.133V99.896z M287.611,94.282h-0.133h-2.41h-0.133V91.17h0.133h2.41h0.133V94.282z M287.611,88.665h-0.133h-2.41h-0.133v-3.111
	h0.133h2.41h0.133V88.665z M287.611,83.045h-0.133h-2.41h-0.133v-3.109h0.133h2.41h0.133V83.045z M301.174,97.227h-1.68v-2.052h1.68
	V97.227z M301.174,93.515h-1.68V91.46h1.68V93.515z M301.174,89.805h-1.68V87.75h1.68V89.805z M301.174,86.092h-1.68v-2.053h1.68
	V86.092z M301.174,82.382h-1.68v-2.055h1.68V82.382z M304.887,97.227h-1.682v-2.052h1.682V97.227z M304.887,93.515h-1.682V91.46
	h1.682V93.515z M304.887,89.805h-1.682V87.75h1.682V89.805z M304.887,86.092h-1.682v-2.053h1.682V86.092z M304.887,82.382h-1.682
	v-2.055h1.682V82.382z M310.82,80.408h-1.5V54.866h1.5V80.408z M310.82,52.373h-1.5v-9.829h1.5V52.373z M314.299,80.408h-1.494
	V54.866h1.494V80.408z M314.299,52.373h-1.494v-9.829h1.494V52.373z M317.781,80.408h-1.498V54.866h1.498V80.408z M317.781,52.373
	h-1.498v-9.829h1.498V52.373z M321.26,80.408h-1.498V54.866h1.498V80.408z M321.26,52.373h-1.498v-9.829h1.498V52.373z
	 M332.703,104.756h-2.553v-1.437h2.553V104.756z M332.703,102.161h-2.553v-1.435h2.553V102.161z M332.703,99.569h-2.553v-1.438
	h2.553V99.569z M332.703,96.975h-2.553V95.54h2.553V96.975z M332.703,94.379h-2.553v-1.436h2.553V94.379z M338.34,104.756h-2.551
	v-1.437h2.551V104.756z M338.34,102.161h-2.551v-1.435h2.551V102.161z M338.34,99.569h-2.551v-1.438h2.551V99.569z M338.34,96.975
	h-2.551V95.54h2.551V96.975z M338.34,94.379h-2.551v-1.436h2.551V94.379z M364.492,61.036h1.992v25.545h-1.992V61.036z
	 M355.223,61.036h1.994v25.545h-1.994V61.036z M352.502,105.91h-2.162v-2.643h2.162V105.91z M352.502,101.136h-2.162V98.49h2.162
	V101.136z M352.502,96.361h-2.162V93.72h2.162V96.361z M352.502,91.585h-2.162v-2.64h2.162V91.585z M352.582,86.581h-1.994V61.036
	h1.994V86.581z M357.277,105.91h-2.162v-2.643h2.162V105.91z M357.277,101.136h-2.162V98.49h2.162V101.136z M357.277,96.361h-2.162
	V93.72h2.162V96.361z M357.277,91.585h-2.162v-2.64h2.162V91.585z M361.83,105.91h-2.162v-2.643h2.162V105.91z M361.83,101.136
	h-2.162V98.49h2.162V101.136z M361.83,96.361h-2.162V93.72h2.162V96.361z M361.83,91.585h-2.162v-2.64h2.162V91.585z
	 M361.852,86.581h-1.994V61.036h1.994V86.581z M366.607,105.91h-2.164v-2.643h2.164V105.91z M366.607,101.136h-2.164V98.49h2.164
	V101.136z M366.607,96.361h-2.164V93.72h2.164V96.361z M366.607,91.585h-2.164v-2.64h2.164V91.585z M374.871,85.399h-2.051v-1.683
	h2.051V85.399z M374.871,81.687h-2.051v-1.681h2.051V81.687z M374.871,78.189h-2.051v-1.679h2.051V78.189z M374.871,74.479h-2.051
	v-1.68h2.051V74.479z M374.871,70.98h-2.051v-1.679h2.051V70.98z M374.871,67.271h-2.051v-1.683h2.051V67.271z M374.871,63.771
	h-2.051v-1.677h2.051V63.771z M374.871,60.062h-2.051v-1.68h2.051V60.062z M374.871,56.566h-2.051v-1.682h2.051V56.566z
	 M374.871,52.855h-2.051v-1.681h2.051V52.855z M374.871,49.359h-2.051v-1.681h2.051V49.359z M374.871,45.647h-2.051v-1.681h2.051
	V45.647z M382.965,99.3h-1.68v-2.056h1.68V99.3z M382.965,95.59h-1.68v-2.056h1.68V95.59z M386.678,99.3h-1.682v-2.056h1.682V99.3z
	 M386.678,95.59h-1.682v-2.056h1.682V95.59z M389.627,89.706h-1.096V70.968h1.096V89.706z M392.178,89.706h-1.096V70.968h1.096
	V89.706z M394.736,89.706h-1.1V70.968h1.1V89.706z M397.287,89.706h-1.1V70.968h1.1V89.706z M408.102,80.475h-1.859V79.04h1.859
	V80.475z M408.102,77.878h-1.859v-1.433h1.859V77.878z M408.102,75.287h-1.859v-1.437h1.859V75.287z M408.102,72.69h-1.859v-1.433
	h1.859V72.69z M408.102,70.098h-1.859v-1.435h1.859V70.098z M412.201,80.475h-1.857V79.04h1.857V80.475z M412.201,77.878h-1.857
	v-1.433h1.857V77.878z M412.201,75.287h-1.857v-1.437h1.857V75.287z M412.201,72.69h-1.857v-1.433h1.857V72.69z M412.201,70.098
	h-1.857v-1.435h1.857V70.098z M417.045,103.618h-1.684v-2.055h1.684V103.618z M417.045,99.905h-1.684v-2.054h1.684V99.905z
	 M417.045,96.193h-1.684v-2.055h1.684V96.193z M417.045,92.483h-1.684v-2.055h1.684V92.483z M417.045,88.773h-1.684v-2.055h1.684
	V88.773z M420.756,103.618h-1.68v-2.055h1.68V103.618z M420.756,99.905h-1.68v-2.054h1.68V99.905z M420.756,96.193h-1.68v-2.055
	h1.68V96.193z M420.756,92.483h-1.68v-2.055h1.68V92.483z M420.756,88.773h-1.68v-2.055h1.68V88.773z M436.949,89.706h-1.098V70.968
	h1.098V89.706z M439.5,89.706h-1.098V70.968h1.098V89.706z M442.055,89.706h-1.096V70.968h1.096V89.706z M444.609,89.706h-1.102
	V70.968h1.102V89.706z M448.143,99.3h-1.682v-2.056h1.682V99.3z M448.143,95.59h-1.682v-2.056h1.682V95.59z M451.855,99.3h-1.684
	v-2.056h1.684V99.3z M451.855,95.59h-1.684v-2.056h1.684V95.59z M460.318,85.399h-2.051v-1.683h2.051V85.399z M460.318,81.687
	h-2.051v-1.681h2.051V81.687z M460.318,78.189h-2.051v-1.679h2.051V78.189z M460.318,74.479h-2.051v-1.68h2.051V74.479z
	 M460.318,70.98h-2.051v-1.679h2.051V70.98z M460.318,67.271h-2.051v-1.683h2.051V67.271z M460.318,63.771h-2.051v-1.677h2.051
	V63.771z M460.318,60.062h-2.051v-1.68h2.051V60.062z M460.318,56.566h-2.051v-1.682h2.051V56.566z M460.318,52.855h-2.051v-1.681
	h2.051V52.855z M460.318,49.359h-2.051v-1.681h2.051V49.359z M460.318,45.647h-2.051v-1.681h2.051V45.647z M475.918,61.036h1.996
	v25.545h-1.996V61.036z M466.65,61.036h1.994v25.545h-1.994V61.036z M468.695,105.91h-2.164v-2.643h2.164V105.91z M468.695,101.136
	h-2.164V98.49h2.164V101.136z M468.695,96.361h-2.164V93.72h2.164V96.361z M468.695,91.585h-2.164v-2.64h2.164V91.585z
	 M471.285,61.036h1.994v25.545h-1.994V61.036z M473.469,105.91h-2.164v-2.643h2.164V105.91z M473.469,101.136h-2.164V98.49h2.164
	V101.136z M473.469,96.361h-2.164V93.72h2.164V96.361z M473.469,91.585h-2.164v-2.64h2.164V91.585z M478.021,105.91h-2.162v-2.643
	h2.162V105.91z M478.021,101.136h-2.162V98.49h2.162V101.136z M478.021,96.361h-2.162V93.72h2.162V96.361z M478.021,91.585h-2.162
	v-2.64h2.162V91.585z M480.555,61.036h1.994v25.545h-1.994V61.036z M482.797,105.91h-2.162v-2.643h2.162V105.91z M482.797,101.136
	h-2.162V98.49h2.162V101.136z M482.797,96.361h-2.162V93.72h2.162V96.361z M482.797,91.585h-2.162v-2.64h2.162V91.585z
	 M497.348,104.756h-2.553v-1.437h2.553V104.756z M497.348,102.161h-2.553v-1.435h2.553V102.161z M497.348,99.569h-2.553v-1.438
	h2.553V99.569z M497.348,96.975h-2.553V95.54h2.553V96.975z M497.348,94.379h-2.553v-1.436h2.553V94.379z M502.984,104.756h-2.551
	v-1.437h2.551V104.756z M502.984,102.161h-2.551v-1.435h2.551V102.161z M502.984,99.569h-2.551v-1.438h2.551V99.569z
	 M502.984,96.975h-2.551V95.54h2.551V96.975z M502.984,94.379h-2.551v-1.436h2.551V94.379z M513.375,80.408h-1.5V54.866h1.5V80.408z
	 M513.375,52.373h-1.5V26.828h1.5V52.373z M516.855,80.408h-1.496V54.866h1.496V80.408z M516.855,52.373h-1.496V26.828h1.496V52.373
	z M520.334,80.408h-1.498V54.866h1.498V80.408z M520.334,52.373h-1.498V26.828h1.498V52.373z M523.814,80.408h-1.496V54.866h1.496
	V80.408z M523.814,52.373h-1.496V26.828h1.496V52.373z M529.934,97.227h-1.682v-2.052h1.682V97.227z M529.934,93.515h-1.682V91.46
	h1.682V93.515z M529.934,89.805h-1.682V87.75h1.682V89.805z M529.934,86.092h-1.682v-2.053h1.682V86.092z M529.934,82.382h-1.682
	v-2.055h1.682V82.382z M533.643,97.227h-1.68v-2.052h1.68V97.227z M533.643,93.515h-1.68V91.46h1.68V93.515z M533.643,89.805h-1.68
	V87.75h1.68V89.805z M533.643,86.092h-1.68v-2.053h1.68V86.092z M533.643,82.382h-1.68v-2.055h1.68V82.382z M548.199,105.515h-2.543
	v-3.108h2.543V105.515z M548.199,99.896h-2.543V96.79h2.543V99.896z M548.199,94.282h-2.543V91.17h2.543V94.282z M548.199,88.665
	h-2.543v-3.111h2.543V88.665z M548.199,83.045h-2.543v-3.109h2.543V83.045z M553.82,105.515h-2.545v-3.108h2.545V105.515z
	 M553.82,99.896h-2.545V96.79h2.545V99.896z M553.82,94.282h-2.545V91.17h2.545V94.282z M553.82,88.665h-2.545v-3.111h2.545V88.665z
	 M553.82,83.045h-2.545v-3.109h2.545V83.045z"/>
</svg>
