<?xml version="1.0" encoding="utf-8"?>
<!-- Generator: Adobe Illustrator 16.0.0, SVG Export Plug-In . SVG Version: 6.00 Build 0)  -->
<!DOCTYPE svg PUBLIC "-//W3C//DTD SVG 1.1//EN" "http://www.w3.org/Graphics/SVG/1.1/DTD/svg11.dtd">
<svg version="1.1" id="图层_1" xmlns="http://www.w3.org/2000/svg" xmlns:xlink="http://www.w3.org/1999/xlink" x="0px" y="0px"
	 width="40px" height="40px" viewBox="0 0 40 40" enable-background="new 0 0 40 40" xml:space="preserve">
<path fill="#F8B62D" d="M37.167,31.104c-0.707,0.36-1.611,0.319-2.283-0.093c-2.576,5.432-8.436,9.014-14.916,9.014
	c-0.09,0-0.178-0.008-0.27-0.01c-6.443-0.098-12.184-3.682-14.697-9.1c-0.682,0.489-1.654,0.586-2.447,0.188
	c-0.564-0.286-0.986-0.772-1.184-1.374c-0.199-0.602-0.152-1.244,0.133-1.809l3.016-5.995l5.994,3.019
	c0.564,0.285,0.986,0.773,1.186,1.375c0.197,0.601,0.15,1.242-0.135,1.809c-0.391,0.773-1.156,1.266-2.018,1.302
	c1.531,2.838,4.496,4.937,7.98,5.61V19.047v-0.02h-1.885c-1.307,0-2.371-1.062-2.371-2.369c0-1.309,1.064-2.371,2.371-2.371h1.885
	v-0.065v-0.53c-2.789-0.996-4.695-3.658-4.695-6.65c0-3.829,3.062-6.949,6.867-7.057c0.066-0.002,0.133-0.01,0.199-0.01
	c3.896,0,7.064,3.17,7.064,7.066c0,2.992-1.904,5.655-4.695,6.65v0.53v0.065h2.021c1.307,0,2.371,1.063,2.371,2.371
	c0,1.307-1.062,2.369-2.371,2.369h-2.021v0.02v16.021c3.561-0.645,6.572-2.754,8.125-5.64c-0.939,0.054-1.812-0.462-2.236-1.301
	c-0.588-1.167-0.117-2.595,1.051-3.183l5.994-3.02l3.016,5.996C38.804,29.088,38.333,30.516,37.167,31.104z M23.601,7.041
	c0-2.043-1.662-3.704-3.705-3.704c-0.066,0-0.131,0.017-0.197,0.021c-1.949,0.104-3.506,1.709-3.506,3.684
	c0,1.976,1.557,3.58,3.506,3.685c0.066,0.003,0.131,0.02,0.197,0.02C21.938,10.745,23.601,9.084,23.601,7.041z"/>
</svg>
