<?xml version="1.0" encoding="utf-8"?>
<!-- Generator: Adobe Illustrator 16.0.0, SVG Export Plug-In . SVG Version: 6.00 Build 0)  -->
<!DOCTYPE svg PUBLIC "-//W3C//DTD SVG 1.1//EN" "http://www.w3.org/Graphics/SVG/1.1/DTD/svg11.dtd">
<svg version="1.1" id="图层_1" xmlns="http://www.w3.org/2000/svg" xmlns:xlink="http://www.w3.org/1999/xlink" x="0px" y="0px"
	 width="100%" height="100%" viewBox="0 0 1290 1571" enable-background="new 0 0 1290 1571" xml:space="preserve">
<rect fill="#A2CFEE" width="1290" height="154"/>
<path fill="#21749F" d="M1290,120.884c-0.116-0.022-0.238-0.013-0.372,0.071c-3.021,1.895-13.26,3.605-17.288,0
	c-4.027-3.605-15.272-1.728-18.379-0.203c-3.104,1.525-10.658,5.892-16.952,1.142s-18.125-3.417-21.398-1.17
	c-3.272,2.246-11.162,5.254-18.967,0s-13.68-1.996-17.12,0c-3.442,1.996-12.085,4.753-18.8,0c-6.713-4.753-15.944-2.247-19.469,0
	s-10.237,4.337-17.624,0c-7.385-4.337-14.938-1.58-18.463,0s-11.916,4.754-18.713,0c-6.798-4.754-15.694-1.83-19.219,0
	c-3.525,1.83-12.002,4.67-18.883,0c-6.882-4.67-14.436-2.33-17.875,0c-3.44,2.33-11.078,4.42-18.8,0
	c-7.721-4.42-14.182-2.33-18.21,0s-12.841,4.087-18.883,0s-14.688-2.58-18.296,0s-10.826,4.42-18.641,0s-14.927-1.996-18.621,0
	c-3.692,1.996-12.504,4.17-18.965,0c-6.463-4.17-15.861-1.663-18.379,0s-11.162,5.42-18.631,0.007
	c-7.47-5.414-15.106-1.836-18.631,0s-11.666,4.914-19.052,0c-7.385-4.914-14.518-2.003-17.958,0s-11.329,4.58-19.134,0
	s-14.099-2.336-18.295-0.1c-4.197,2.236-10.154,5.347-18.883,0s-16.868-1.236-18.463-0.032s-11.665,5.462-19.051,0.269
	c-7.385-5.194-15.106-2.556-18.379-0.056c-2.186,1.669-6.689,2.846-11.414,2.409v0.039c-2.799-0.188-5.478-0.848-7.103-2.303
	c-4.028-3.605-15.273-1.728-18.379-0.203c-3.104,1.525-10.659,5.892-16.954,1.142c-6.294-4.75-18.125-3.417-21.398-1.17
	s-11.162,5.254-18.967,0s-13.68-1.996-17.12,0c-3.442,1.996-12.085,4.753-18.8,0c-6.713-4.753-15.944-2.247-19.469,0
	s-10.238,4.337-17.624,0s-14.938-1.58-18.463,0s-11.916,4.754-18.713,0s-15.694-1.83-19.219,0s-12,4.67-18.882,0
	s-14.436-2.33-17.875,0s-11.078,4.42-18.799,0s-14.183-2.33-18.211,0c-4.028,2.33-12.84,4.087-18.883,0s-14.687-2.58-18.295,0
	c-3.608,2.58-10.826,4.42-18.641,0c-7.815-4.42-14.928-1.996-18.621,0s-12.504,4.17-18.966,0s-15.861-1.663-18.379,0
	s-11.162,5.42-18.631,0.007s-15.106-1.836-18.63,0c-3.525,1.836-11.666,4.914-19.051,0s-14.519-2.003-17.959,0s-11.33,4.58-19.134,0
	s-14.099-2.336-18.295-0.1c-4.196,2.236-10.155,5.347-18.882,0s-16.868-1.236-18.463-0.032s-11.666,5.462-19.051,0.269
	s-15.106-2.556-18.379-0.056s-11.749,3.917-18.379,0.417s-10.658-4.083-19.721,0.25s-19.085-0.833-19.085-0.833
	c-7.252-3-10.875-2.5-17.675,1.083s-17.035,0.75-19.468-0.833s-5.035-1.667-5.035-1.667V145.5H0V1571h1290V215.333V145.5V120.884z"
	/>
<path fill="#FFFFFF" d="M277.605,40.535c-6.81,1.259-19.074-16.859,0-20.083c0,0,0.575-14.996,12.816-11.292
	c2.564-4.845,11.112-8.356,13.665,0.564c4.46,0.989,15.945-2.879,14.229,12.084c9.971,1.011,13.099,13.256,4.562,17.526"/>
<path fill="#FFFFFF" d="M539.785,75.001c-4.584,0.848-12.842-11.351,0-13.521c0,0,0.388-10.097,8.629-7.603
	c1.727-3.262,7.481-5.626,9.2,0.38c3.003,0.666,10.735-1.938,9.58,8.136c6.713,0.68,8.819,8.925,3.072,11.8"/>
<path fill="#FFFFFF" d="M136.62,96.463c-4.584,0.848-12.842-11.351,0-13.521c0,0,0.388-10.097,8.629-7.603
	c1.727-3.262,7.481-5.626,9.2,0.38c3.003,0.666,10.735-1.938,9.58,8.136c6.713,0.68,8.819,8.925,3.072,11.8"/>
<path fill="#FFFFFF" d="M408.147,102.355c-1.889,0.349-5.292-4.678,0-5.573c0,0,0.16-4.161,3.556-3.134
	c0.712-1.344,3.083-2.318,3.792,0.157c1.238,0.274,4.424-0.799,3.948,3.353c2.767,0.28,3.635,3.679,1.266,4.863"/>
<path fill="#FFFFFF" d="M732.552,52.849c-5.707,1.055-15.988-14.131,0-16.834c0,0,0.482-12.57,10.743-9.466
	c2.149-4.062,9.313-7.004,11.453,0.473c3.739,0.828,13.366-2.414,11.927,10.129c8.358,0.847,10.98,11.112,3.824,14.69"/>
<path fill="#FFFFFF" d="M996.552,52.849c-5.707,1.055-15.988-14.131,0-16.834c0,0,0.482-12.57,10.743-9.466
	c2.149-4.062,9.313-7.004,11.453,0.473c3.739,0.828,13.366-2.414,11.927,10.129c8.358,0.847,10.98,11.112,3.824,14.69"/>
<path fill="#FFFFFF" d="M848.599,96.868c-2.977,0.55-8.335-7.367,0-8.776c0,0,0.251-6.553,5.601-4.935
	c1.12-2.117,4.855-3.651,5.97,0.247c1.949,0.432,6.967-1.258,6.218,5.28c4.357,0.441,5.724,5.792,1.994,7.658"/>
<rect x="-11" fill="none" width="1290" height="241.098"/>
<linearGradient id="SVGID_1_" gradientUnits="userSpaceOnUse" x1="274.1338" y1="109.3403" x2="274.1338" y2="108.8771">
	<stop  offset="0" style="stop-color:#D7EAED"/>
	<stop  offset="0.9944" style="stop-color:#C8DCE5"/>
</linearGradient>
<path opacity="0.49" fill="url(#SVGID_1_)" d="M274.31,109.476l-0.353-0.637C273.958,108.838,273.981,109.084,274.31,109.476z"/>
<linearGradient id="SVGID_2_" gradientUnits="userSpaceOnUse" x1="273.2515" y1="114.8843" x2="273.2515" y2="114.4211">
	<stop  offset="0" style="stop-color:#D7EAED"/>
	<stop  offset="0.9944" style="stop-color:#C8DCE5"/>
</linearGradient>
<path opacity="0.49" fill="url(#SVGID_2_)" d="M273.428,115.02l-0.353-0.637C273.075,114.382,273.099,114.628,273.428,115.02z"/>
<rect x="1951.196" y="-988.039" fill="none" width="1290" height="241.098"/>
</svg>
