<?xml version="1.0" encoding="utf-8"?>
<!-- Generator: Adobe Illustrator 16.0.0, SVG Export Plug-In . SVG Version: 6.00 Build 0)  -->
<!DOCTYPE svg PUBLIC "-//W3C//DTD SVG 1.1//EN" "http://www.w3.org/Graphics/SVG/1.1/DTD/svg11.dtd">
<svg xmlns="http://www.w3.org/2000/svg" xmlns:xlink="http://www.w3.org/1999/xlink" version="1.1" x="0px" y="0px" width="1920px" height="566px" viewBox="0 0 1920 566" enable-background="new 0 0 1920 566" xml:space="preserve">
<g>
	<g>
		<defs>
			<rect id="SVGID_1_hang" x="0.312" y="0.271" width="1919.999" height="566"/>
		</defs>


	</g>
	<g>
		<g>
			<g>
				<defs>
					<rect id="SVGID_3_hang" x="-0.021" y="-0.062" width="1920" height="566"/>
				</defs>
				<clipPath id="SVGID_4_hang">
					<use xlink:href="#SVGID_3_hang" overflow="visible"/>
				</clipPath>
			</g>
		</g>
		<g>
			<rect x="410.17" y="112.482" fill="#0CA587" width="1099.618" height="416.904"/>
			<g>
				<g>
					<rect x="499.993" y="-0.062" fill="#040607" width="2.315" height="116.238"/>
				</g>
				<path d="M494.594,127.976c0,0,0.848-0.159,1.144,0.183c0.297,0.346,1.255,0.922,1.255,0.922l8.833-0.021l1.186-0.799      c0,0,0.366-0.277,0.788-0.271c0.424,0.006,0.906,0.012,0.906,0.012l7.354,0.099l0.901-15.977l-31.562-0.142l0.575,15.875      l8.441,0.116"/>
				<rect x="485.395" y="111.98" fill="#292C2D" width="31.515" height="1.746"/>
				<rect x="486.01" y="126.181" width="8.87" height="2.878"/>
				<rect x="507.193" y="126.181" width="8.869" height="2.878"/>
				<rect x="486.01" y="126.181" fill="#292C2D" width="8.87" height="1.133"/>
				<rect x="507.146" y="126.229" fill="#292C2D" width="8.869" height="1.132"/>
			</g>
			<g>
				<g>
					<rect x="1408.993" y="-0.062" fill="#040607" width="2.313" height="116.238"/>
				</g>
				<path d="M1403.595,127.976c0,0,0.847-0.159,1.144,0.183c0.297,0.346,1.254,0.922,1.254,0.922l8.834-0.021l1.186-0.799      c0,0,0.365-0.277,0.787-0.271c0.424,0.006,0.906,0.012,0.906,0.012l7.354,0.099l0.9-15.977l-31.561-0.142l0.573,15.875      l8.441,0.116"/>
				<rect x="1394.395" y="111.98" fill="#292C2D" width="31.514" height="1.746"/>
				<rect x="1395.009" y="126.181" width="8.871" height="2.878"/>
				<rect x="1416.192" y="126.181" width="8.868" height="2.878"/>
				<rect x="1395.009" y="126.181" fill="#292C2D" width="8.871" height="1.133"/>
				<rect x="1416.146" y="126.229" fill="#292C2D" width="8.868" height="1.132"/>
			</g>
		</g>
	</g>
</g>
</svg>
