<?xml version="1.0" encoding="utf-8" ?>
<!-- Generator: Adobe Illustrator 16.0.0, SVG Export Plug-In . SVG Version: 6.00 Build 0)  -->
<!DOCTYPE svg PUBLIC "-//W3C//DTD SVG 1.1//EN" "http://www.w3.org/Graphics/SVG/1.1/DTD/svg11.dtd">
<svg version="1.1" id="图层_1" xmlns="http://www.w3.org/2000/svg" xmlns:xlink="http://www.w3.org/1999/xlink" x="0px" y="0px" width="1920px" height="595.28px" viewBox="0 0 1920 595.28" enable-background="new 0 0 1920 595.28" xml:space="preserve">
    <g xmlns="http://www.w3.org/2000/svg">
        <ellipse fill="#2CBDBA" cx="420.069" cy="183.676" rx="41.748" ry="41.305" />
        <g>
            <ellipse fill="#FFFFFF" cx="406.571" cy="163.657" rx="5.01" ry="4.957" />
            <ellipse fill="#FFFFFF" cx="433.548" cy="163.73" rx="5.01" ry="4.957" />
            <ellipse fill="#FFFFFF" cx="420.151" cy="162.278" rx="5.414" ry="5.356" />
            <path fill="#FFFFFF" d="M414.481,186.228v15.815h4.128l1.542-9.805l1.541,9.75l3.8,0.055v-15.78    c1.661-0.739,2.83-2.501,2.83-4.558v-8.015c0-2.723-2.05-4.931-4.579-4.931h-7.438c-2.528,0-4.578,2.208-4.578,4.931v8.015    C411.728,183.729,412.861,185.468,414.481,186.228z" />
            <path fill="#FFFFFF" d="M441.664,196.759c1.004,0.642,1.556,1.339,1.556,2.068c0,3.16-10.328,5.72-23.068,5.72    s-23.068-2.561-23.068-5.72c0-0.792,0.65-1.546,1.824-2.232c-3.958,1.463-6.338,3.342-6.338,5.393    c0,4.663,12.312,8.443,27.5,8.443c15.188,0,27.5-3.78,27.5-8.443C447.569,200.013,445.362,198.197,441.664,196.759z" />
            <path fill="#FFFFFF" d="M430.262,169.577c-0.164,0-0.323,0.012-0.481,0.03c0.761,0.973,1.219,2.228,1.219,3.599v9.084    c0,1.989-0.965,3.733-2.417,4.724v13.175h3.798l1.418-9.019l1.418,8.968l3.494,0.05v-14.514c1.528-0.68,2.604-2.3,2.604-4.192    v-7.371c0-2.505-1.885-4.536-4.211-4.536H430.262z" />
            <path fill="#FFFFFF" d="M401.332,185.699v14.545h3.798l1.417-9.018l1.418,8.968l3.494,0.05v-13.298    c-1.355-1.009-2.243-2.692-2.243-4.601v-9.085c0-1.365,0.454-2.615,1.209-3.586c-0.188-0.027-0.379-0.042-0.573-0.042h-6.842    c-2.326,0-4.211,2.03-4.211,4.535v7.371C398.799,183.401,399.842,185,401.332,185.699z" />
        </g>
    </g>
    <ellipse xmlns="http://www.w3.org/2000/svg" fill="#58A6F4" cx="535.032" cy="183.676" rx="41.748" ry="41.305" />
    <g xmlns="http://www.w3.org/2000/svg">
        <path fill-rule="evenodd" clip-rule="evenodd" fill="#FFFFFF" d="M527.813,198.55c0,0-2.101,1.21,1.497,1.618   c4.359,0.493,6.585,0.422,11.387-0.476c0,0,1.265,0.783,3.028,1.459C532.958,205.717,519.357,200.887,527.813,198.55   L527.813,198.55z" />
        <path fill-rule="evenodd" clip-rule="evenodd" fill="#FFFFFF" d="M526.497,192.592c0,0-2.356,1.727,1.244,2.095   c4.656,0.476,8.332,0.514,14.696-0.697c0,0,0.879,0.883,2.262,1.365C531.681,199.121,517.184,195.65,526.497,192.592   L526.497,192.592z" />
        <path fill-rule="evenodd" clip-rule="evenodd" fill="#FFFFFF" d="M537.588,182.486c2.655,3.023-0.696,5.741-0.696,5.741   s6.736-3.439,3.643-7.75c-2.889-4.017-5.105-6.013,6.889-12.895C547.425,167.583,528.596,172.234,537.588,182.486L537.588,182.486z   " />
        <path fill-rule="evenodd" clip-rule="evenodd" fill="#FFFFFF" d="M551.83,202.958c0,0,1.555,1.268-1.713,2.249   c-6.213,1.862-25.867,2.423-31.325,0.074c-1.962-0.846,1.717-2.017,2.875-2.263c1.206-0.259,1.896-0.212,1.896-0.212   c-2.183-1.521-14.105,2.986-6.056,4.279C539.459,210.604,557.523,205.498,551.83,202.958L551.83,202.958z" />
        <path fill-rule="evenodd" clip-rule="evenodd" fill="#FFFFFF" d="M528.825,186.419c0,0-9.996,2.35-3.54,3.204   c2.727,0.361,8.16,0.278,13.224-0.143c4.137-0.343,8.291-1.078,8.291-1.078s-1.459,0.619-2.514,1.332   c-10.153,2.642-29.761,1.412-24.115-1.29C524.942,186.16,528.825,186.419,528.825,186.419L528.825,186.419z" />
        <path fill-rule="evenodd" clip-rule="evenodd" fill="#FFFFFF" d="M546.756,196.336c10.319-5.304,5.548-10.402,2.217-9.716   c-0.814,0.169-1.18,0.314-1.18,0.314s0.304-0.47,0.881-0.673c6.589-2.291,11.655,6.76-2.125,10.343   C546.55,196.604,546.709,196.462,546.756,196.336L546.756,196.336z" />
        <path fill-rule="evenodd" clip-rule="evenodd" fill="#FFFFFF" d="M540.536,156.467c0,0,5.713,5.657-5.421,14.352   c-8.929,6.978-2.036,10.955-0.003,15.501c-5.212-4.653-9.036-8.749-6.471-12.562C532.406,168.165,542.841,165.452,540.536,156.467   L540.536,156.467z" />
        <path fill-rule="evenodd" clip-rule="evenodd" fill="#FFFFFF" d="M529.839,210.713c9.903,0.627,25.114-0.348,25.475-4.985   c0,0-0.692,1.758-8.185,3.153c-8.454,1.575-18.882,1.391-25.065,0.381C522.064,209.261,523.331,210.298,529.839,210.713   L529.839,210.713z" />
    </g>
    <ellipse xmlns="http://www.w3.org/2000/svg" fill="#F1C22A" cx="650.198" cy="183.676" rx="41.748" ry="41.305"/>
    <g xmlns="http://www.w3.org/2000/svg">
    <path fill="#FFFFFF" d="M660.295,177.989v-7.174h-4.039c-0.326-1.344-0.838-2.612-1.516-3.78l2.809-2.778l-5.127-5.073l-2.75,2.721   c-1.192-0.716-2.494-1.264-3.879-1.618v-3.82h-7.25v3.82c-1.385,0.354-2.687,0.902-3.879,1.618l-2.75-2.721l-5.127,5.073   l2.809,2.778c-0.678,1.168-1.19,2.437-1.516,3.78h-4.039v7.174h4.162c0.359,1.283,0.892,2.49,1.573,3.602l-2.989,2.957l5.127,5.074   l3.048-3.015c1.11,0.63,2.311,1.114,3.582,1.438v4.293h7.25v-4.293c1.271-0.324,2.471-0.808,3.582-1.438l3.047,3.015l5.127-5.073   l-2.989-2.957c0.683-1.111,1.215-2.318,1.573-3.602H660.295z M642.168,179.425c-2.804,0-5.076-2.249-5.076-5.023   c0-2.774,2.271-5.022,5.076-5.022c2.803,0,5.075,2.248,5.075,5.022C647.244,177.177,644.972,179.425,642.168,179.425z"/>
    <path fill="#FFFFFF" d="M673.953,167.321v-2.767h-1.557c-0.125-0.518-0.324-1.007-0.584-1.458l1.083-1.071l-1.976-1.957   l-1.061,1.05c-0.459-0.276-0.961-0.488-1.496-0.625v-1.473h-2.795v1.473c-0.534,0.137-1.036,0.349-1.496,0.625l-1.06-1.05   l-1.977,1.957l1.083,1.071c-0.261,0.45-0.459,0.939-0.584,1.458h-1.557v2.767h1.605c0.138,0.494,0.343,0.959,0.606,1.388   l-1.152,1.14l1.977,1.956l1.175-1.163c0.428,0.243,0.892,0.43,1.381,0.555v1.655h2.795v-1.655c0.49-0.125,0.953-0.312,1.381-0.555   l1.175,1.163l1.976-1.956l-1.152-1.14c0.263-0.429,0.468-0.894,0.606-1.388H673.953z M666.963,167.875   c-1.081,0-1.957-0.867-1.957-1.937c0-1.07,0.876-1.937,1.957-1.937c1.082,0,1.957,0.867,1.957,1.937   C668.92,167.008,668.045,167.875,666.963,167.875z"/>
    <path fill="#FFFFFF" d="M676.355,201.117v-4.884h-2.75c-0.221-0.915-0.57-1.778-1.032-2.573l1.913-1.891l-3.491-3.455l-1.872,1.853   c-0.812-0.488-1.697-0.86-2.641-1.103v-2.6h-4.936v2.6c-0.943,0.243-1.829,0.615-2.64,1.103l-1.871-1.853l-3.491,3.455l1.911,1.891   c-0.46,0.794-0.81,1.658-1.031,2.573h-2.75v4.884h2.833c0.244,0.873,0.605,1.694,1.07,2.451l-2.034,2.013l3.491,3.454l2.073-2.053   c0.756,0.429,1.574,0.759,2.438,0.979v2.922h4.936v-2.922c0.864-0.221,1.683-0.551,2.439-0.979l2.074,2.053l3.491-3.454   l-2.035-2.013c0.464-0.757,0.826-1.579,1.069-2.451H676.355z M664.016,202.095c-1.909,0-3.456-1.531-3.456-3.42   c0-1.889,1.546-3.418,3.456-3.418c1.909,0,3.454,1.53,3.454,3.418C667.47,200.564,665.924,202.095,664.016,202.095z"/>
</g>
</svg>
